HIERARCHY
ROOT Hips
{
	OFFSET	0.00	0.00	0.00
	CHANNELS 6 Xposition Yposition Zposition Zrotation Xrotation Yrotation
	JOINT LeftUpLeg
	{
		OFFSET	 0.126116	-0.014019	-0.065224
		CHANNELS 3 Zrotation Xrotation Yrotation
		JOINT LeftLeg
		{
			OFFSET	 0.000000	 0.000000	 0.569914
			CHANNELS 3 Zrotation Xrotation Yrotation
			JOINT LeftFoot
			{
				OFFSET	 0.000000	 0.000000	 0.544423
				CHANNELS 3 Zrotation Xrotation Yrotation
				JOINT LeftToeBase
				{
					OFFSET	 0.000000	 0.000000	 0.207117
					CHANNELS 3 Zrotation Xrotation Yrotation
					End Site
					{
						OFFSET	 0.000000	 0.000000	 0.207117
					}
				}
			}
		}
	}
	JOINT RightUpLeg
	{
		OFFSET	-0.124023	-0.008373	-0.065224
		CHANNELS 3 Zrotation Xrotation Yrotation
		JOINT RightLeg
		{
			OFFSET	 0.000000	 0.000000	 0.570047
			CHANNELS 3 Zrotation Xrotation Yrotation
			JOINT RightFoot
			{
				OFFSET	 0.000000	 0.000000	 0.544354
				CHANNELS 3 Zrotation Xrotation Yrotation
				JOINT RightToeBase
				{
					OFFSET	 0.000000	 0.000000	 0.207540
					CHANNELS 3 Zrotation Xrotation Yrotation
					End Site
					{
						OFFSET	 0.000000	 0.000000	 0.207540
					}
				}
			}
		}
	}
	JOINT Spine
	{
		OFFSET	 0.000184	-0.007763	 0.117403
		CHANNELS 3 Zrotation Xrotation Yrotation
		JOINT Spine1
		{
			OFFSET	 0.000000	 0.000000	 0.137269
			CHANNELS 3 Zrotation Xrotation Yrotation
			JOINT Spine2
			{
				OFFSET	 0.000000	 0.000000	 0.156879
				CHANNELS 3 Zrotation Xrotation Yrotation
				JOINT LeftShoulder
				{
					OFFSET	 0.080501	-0.002496	 0.160144
					CHANNELS 3 Zrotation Xrotation Yrotation
					JOINT LeftArm
					{
						OFFSET	 0.000000	 0.000000	 0.164363
						CHANNELS 3 Zrotation Xrotation Yrotation
						JOINT LeftForeArm
						{
							OFFSET	 0.000000	 0.000000	 0.364576
							CHANNELS 3 Zrotation Xrotation Yrotation
							JOINT LeftHand
							{
								OFFSET	 0.000000	 0.000000	 0.360812
								CHANNELS 3 Zrotation Xrotation Yrotation
								JOINT LeftHandIndex1
								{
									OFFSET	 0.000000	 0.000000	 0.086006
									CHANNELS 3 Zrotation Xrotation Yrotation
									JOINT LeftHandIndex2
									{
										OFFSET	 0.000000	 0.000000	 0.047236
										CHANNELS 3 Zrotation Xrotation Yrotation
										JOINT LeftHandIndex3
										{
											OFFSET	-0.004284	-0.000551	 0.038166
											CHANNELS 3 Zrotation Xrotation Yrotation
											End Site
											{
												OFFSET	-0.004284	-0.000551	 0.038166
											}
										}
									}
								}
							}
						}
					}
				}
				JOINT Neck
				{
					OFFSET	 0.000000	 0.000000	 0.176489
					CHANNELS 3 Zrotation Xrotation Yrotation
					JOINT Head
					{
						OFFSET	 0.000000	-0.001747	 0.077940
						CHANNELS 3 Zrotation Xrotation Yrotation
						End Site
						{
							OFFSET	 0.000000	-0.001747	 0.077940
						}
					}
				}
				JOINT RightShoulder
				{
					OFFSET	-0.080363	 0.000306	 0.159706
					CHANNELS 3 Zrotation Xrotation Yrotation
					JOINT RightArm
					{
						OFFSET	 0.000000	 0.000000	 0.164196
						CHANNELS 3 Zrotation Xrotation Yrotation
						JOINT RightForeArm
						{
							OFFSET	 0.000000	 0.000000	 0.365611
							CHANNELS 3 Zrotation Xrotation Yrotation
							JOINT RightHand
							{
								OFFSET	 0.000000	 0.000000	 0.360648
								CHANNELS 3 Zrotation Xrotation Yrotation
								JOINT RightHandIndex1
								{
									OFFSET	 0.000000	 0.000000	 0.069977
									CHANNELS 3 Zrotation Xrotation Yrotation
									JOINT RightHandIndex2
									{
										OFFSET	 0.000000	 0.000000	 0.052305
										CHANNELS 3 Zrotation Xrotation Yrotation
										JOINT RightHandIndex3
										{
											OFFSET	 0.009002	-0.000782	 0.042196
											CHANNELS 3 Zrotation Xrotation Yrotation
											End Site
											{
												OFFSET	 0.009002	-0.000782	 0.042196
											}
										}
									}
								}
							}
						}
					}
				}
			}
		}
	}
}
MOTION
Frames:    7
Frame Time: 0.03333334
-0.000565	 0.032671	 1.270901	 0.003473	 0.004339	-0.133857	 2.985425	-1.946722	 177.806000	 1.476334	-11.707900	-0.683087	-6.953275	 70.364720	 0.848209	-2.385833	 28.452760	 0.000004	-3.063150	-3.449421	-177.642800	-1.443547	-13.221320	 0.760182	 6.752024	 70.488120	-0.798606	 2.384658	 28.388730	 0.000004	-8.297664	 2.760543	-0.057360	 1.584384	 3.567921	 0.637468	-4.765329	-4.447109	-1.039893	-91.776170	 78.527470	 180.000000	 55.990090	 39.434320	-51.102000	-23.173440	 3.335728	-11.550620	-40.319230	-17.200040	-7.573860	-2.635965	 4.993658	 6.788941	-5.165319	 0.784187	 3.516649	-5.225038	 0.466231	 0.424329	-0.000002	-3.783157	-0.089647	-4.628418	 4.891623	 0.197788	 89.782070	 78.203890	-180.000000	 3.773113	 13.261320	 101.341000	-19.383300	 2.998169	 11.655450	 11.722170	-19.562290	-3.115679	 6.112037	 4.509576	-0.364401	 4.968462	 1.518543	-9.347576	 5.168945	 0.703820	 2.021906
-0.000525	 0.034681	 1.271734	 0.004102	 0.006920	-0.102611	 2.993796	-1.751394	 177.759400	 1.481858	-11.244440	-0.655323	-6.814429	 70.020150	 0.703190	-2.385833	 28.452760	 0.000004	-3.077794	-3.217355	-177.651500	-1.452819	-12.521040	 0.718568	 6.531891	 69.942340	-0.568656	 2.384658	 28.388730	 0.000004	-7.327801	 2.752645	-0.025873	 1.235361	 3.570635	 0.504826	-3.713261	-4.492435	-0.815487	-91.776120	 78.527470	 180.000000	 56.020290	 39.400550	-51.094870	-23.410890	 3.436746	-11.720510	-40.375190	-16.330550	-7.441321	-2.635965	 4.993658	 6.788941	-5.165319	 0.784187	 3.516649	-5.225038	 0.466231	 0.424329	-0.000002	-3.783157	-0.089647	-3.602994	 4.982882	 0.156808	 89.782100	 78.203870	 180.000000	 3.719054	 13.502350	 101.373500	-19.316360	 3.097509	 11.828160	 11.962080	-18.840470	-3.242975	 6.112037	 4.509576	-0.364401	 4.968462	 1.518543	-9.347576	 5.168945	 0.703820	 2.021906
-0.000427	 0.036728	 1.272453	 0.004209	 0.008504	-0.066045	 2.992530	-1.815124	 177.728900	 1.481015	-11.316650	-0.659643	-6.811319	 69.944090	 0.702537	-2.385833	 28.452760	 0.000004	-3.089151	-3.057651	-177.670600	-1.459780	-11.966020	 0.685747	 6.357172	 69.463880	-0.386548	 2.384658	 28.388730	 0.000004	-6.104104	 2.747210	-0.019819	 0.806679	 3.572490	 0.404208	-2.429028	-4.533438	-0.568220	-91.776180	 78.527450	 180.000000	 56.116790	 39.388280	-51.185140	-23.645160	 3.537482	-11.887130	-40.414650	-15.242810	-7.260830	-2.635965	 4.993658	 6.788941	-5.165319	 0.784187	 3.516649	-5.225038	 0.466231	 0.424329	-0.000002	-3.783157	-0.089647	-2.351324	 5.062853	 0.103953	 89.782230	 78.203890	 179.999900	 3.656664	 13.803750	 101.358800	-19.267820	 3.197098	 11.995870	 11.808400	-17.685770	-3.419816	 6.112037	 4.509576	-0.364401	 4.968462	 1.518543	-9.347576	 5.168945	 0.703820	 2.021906
-0.000285	 0.038542	 1.272980	 0.001733	 0.010475	-0.021395	 2.993199	-1.883709	 177.691300	 1.479991	-11.403240	-0.664827	-6.812116	 69.887310	 0.705717	-2.385833	 28.452760	 0.000004	-3.089797	-3.095591	-177.712000	-1.461287	-11.841790	 0.678421	 6.296198	 69.223880	-0.325390	 2.384658	 28.388730	 0.000004	-4.772945	 2.741027	 0.033500	 0.386806	 3.574346	 0.191560	-1.151063	-4.561004	-0.268978	-91.776120	 78.527470	 179.999900	 56.265030	 39.413940	-51.371810	-23.830600	 3.618704	-12.019170	-40.426170	-14.096420	-7.057891	-2.635965	 4.993658	 6.788941	-5.165319	 0.784187	 3.516649	-5.225038	 0.466231	 0.424329	-0.000002	-3.783157	-0.089647	-1.111527	 5.108703	 0.049574	 89.782090	 78.203870	-180.000000	 3.395779	 14.280850	 101.286800	-18.945010	 3.279882	 12.126580	 11.004620	-16.310670	-3.581701	 6.112037	 4.509576	-0.364401	 4.968462	 1.518543	-9.347576	 5.168945	 0.703820	 2.021906
-0.000154	 0.040631	 1.274018	-0.000749	 0.011365	 0.025435	 2.993531	-1.964220	 177.653400	 1.478707	-11.511210	-0.671293	-6.813955	 69.829490	 0.710245	-2.385833	 28.452760	 0.000004	-3.090830	-3.138059	-177.755900	-1.462928	-11.705480	 0.670386	 6.228690	 68.956830	-0.257600	 2.384658	 28.388730	 0.000004	-2.979529	 2.737426	 0.098148	-0.104691	 3.575779	-0.050325	 0.342481	-4.571164	 0.078517	-91.776090	 78.527470	 179.999900	 56.498200	 39.487740	-51.702340	-23.993520	 3.690718	-12.134820	-40.403000	-12.619120	-6.783042	-2.635965	 4.993658	 6.788941	-5.165319	 0.784187	 3.516649	-5.225038	 0.466231	 0.424329	-0.000002	-3.783157	-0.089647	 0.336585	 5.120544	-0.015064	 89.782150	 78.203920	 180.000000	 0.629032	 15.105620	 100.902300	-17.727550	 3.361429	 12.243460	 10.521580	-14.973090	-3.689339	 6.112037	 4.509576	-0.364401	 4.968462	 1.518543	-9.347576	 5.168945	 0.703820	 2.021906
-0.000046	 0.042778	 1.275475	-0.003213	 0.007911	 0.061592	 2.993630	-2.055443	 177.628900	 1.477005	-11.652690	-0.679774	-6.820205	 69.789570	 0.719316	-2.385833	 28.452760	 0.000004	-3.090982	-3.192025	-177.791700	-1.464160	-11.601930	 0.664290	 6.166181	 68.707260	-0.194896	 2.384658	 28.388730	 0.000004	-0.841669	 2.737140	 0.166769	-0.589107	 3.582279	-0.277187	 1.812393	-4.560789	 0.415327	-91.776220	 78.527430	-180.000000	 56.800500	 39.606210	-52.162580	-24.087140	 3.732398	-12.201160	-40.328460	-10.947770	-6.460156	-2.635965	 4.993658	 6.788941	-5.165319	 0.784187	 3.516649	-5.225038	 0.466231	 0.424329	-0.000002	-3.783157	-0.089647	 1.762383	 5.088202	-0.078326	 89.782130	 78.203890	 180.000000	-4.860513	 16.476220	 100.035100	-15.617210	 3.421500	 12.309960	 11.495080	-14.113390	-3.696933	 6.112037	 4.509576	-0.364401	 4.968462	 1.518543	-9.347576	 5.168945	 0.703820	 2.021906
 0.000032	 0.044686	 1.276808	-0.003182	 0.007370	 0.091670	 2.992241	-2.118779	 177.605800	 1.476003	-11.734900	-0.684707	-6.818930	 69.730050	 0.720375	-2.385833	 28.452760	 0.000004	-3.093615	-3.237292	-177.821100	-1.465399	-11.496680	 0.658098	 6.108514	 68.476750	-0.136908	 2.384658	 28.388730	 0.000004	 1.367293	 2.738461	 0.178033	-0.998961	 3.579895	-0.375071	 3.039476	-4.533856	 0.653455	-91.776180	 78.527490	 180.000000	 57.145430	 39.746750	-52.720020	-24.093450	 3.737080	-12.207990	-40.202330	-9.299211	-6.133903	-2.635965	 4.993658	 6.788941	-5.165319	 0.784187	 3.516649	-5.225038	 0.466231	 0.424329	-0.000002	-3.783157	-0.089647	 2.957077	 5.027476	-0.129861	 89.782040	 78.203890	-180.000000	-11.008690	 18.542170	 98.154100	-13.264980	 3.445273	 12.315650	 13.584440	-13.575530	-3.534060	 6.112037	 4.509576	-0.364401	 4.968462	 1.518543	-9.347576	 5.168945	 0.703820	 2.021906
